<svg width="69" height="40" viewBox="0 0 69 40" fill="none" xmlns="http://www.w3.org/2000/svg">
<path d="M14.8505 25L15.7507 22.31H19.8522L20.7578 25H22.8671L19.0213 14.0909H16.5816L12.7411 25H14.8505ZM16.2833 20.7227L17.7588 16.3281H17.8441L19.3196 20.7227H16.2833ZM24.304 25H26.2003V23.7109H26.3122C26.6158 24.3075 27.2497 25.1438 28.6559 25.1438C30.5842 25.1438 32.0277 23.6151 32.0277 20.9197C32.0277 18.1925 30.5416 16.7116 28.6506 16.7116C27.2071 16.7116 26.6052 17.5799 26.3122 18.1712H26.2323V14.0909H24.304V25ZM26.195 20.9091C26.195 19.3217 26.8768 18.2937 28.1179 18.2937C29.4017 18.2937 30.0622 19.3857 30.0622 20.9091C30.0622 22.4432 29.391 23.5618 28.1179 23.5618C26.8875 23.5618 26.195 22.4964 26.195 20.9091ZM37.2359 25.1598C39.6329 25.1598 41.1564 23.4712 41.1564 20.9411C41.1564 18.4055 39.6329 16.7116 37.2359 16.7116C34.8389 16.7116 33.3155 18.4055 33.3155 20.9411C33.3155 23.4712 34.8389 25.1598 37.2359 25.1598ZM37.2466 23.6151C35.9202 23.6151 35.2704 22.4325 35.2704 20.9357C35.2704 19.4389 35.9202 18.2404 37.2466 18.2404C38.5516 18.2404 39.2015 19.4389 39.2015 20.9357C39.2015 22.4325 38.5516 23.6151 37.2466 23.6151ZM48.0079 21.5589C48.0079 22.8054 47.1183 23.4233 46.266 23.4233C45.3392 23.4233 44.7213 22.7681 44.7213 21.7294V16.8182H42.793V22.0277C42.793 23.9933 43.9116 25.1065 45.5203 25.1065C46.7454 25.1065 47.6084 24.462 47.9812 23.5458H48.0665V25H49.9361V16.8182H48.0079V21.5589ZM56.0046 16.8182H54.3906V14.858H52.4623V16.8182H51.3011V18.3097H52.4623V22.8587C52.4517 24.3981 53.5703 25.1545 55.0191 25.1119C55.5678 25.0959 55.946 24.9893 56.1537 24.9201L55.8288 23.4126C55.7223 23.4393 55.5039 23.4872 55.2642 23.4872C54.7794 23.4872 54.3906 23.3168 54.3906 22.5391V18.3097H56.0046V16.8182Z" fill="#344563"/>
</svg>
