<svg width="83" height="40" viewBox="0 0 83 40" fill="none" xmlns="http://www.w3.org/2000/svg">
<path d="M22.8732 17.7717C22.5376 15.348 20.6733 13.9418 18.2549 13.9418C15.4051 13.9418 13.2585 16.0192 13.2585 19.5455C13.2585 23.0664 15.3785 25.1491 18.2549 25.1491C20.849 25.1491 22.5696 23.4712 22.8732 21.3885L20.881 21.3778C20.6306 22.6562 19.5866 23.3754 18.2816 23.3754C16.5131 23.3754 15.2453 22.049 15.2453 19.5455C15.2453 17.0845 16.5024 15.7156 18.2869 15.7156C19.6132 15.7156 20.6519 16.4666 20.881 17.7717H22.8732ZM28.1666 25.1598C30.5636 25.1598 32.087 23.4712 32.087 20.9411C32.087 18.4055 30.5636 16.7116 28.1666 16.7116C25.7696 16.7116 24.2461 18.4055 24.2461 20.9411C24.2461 23.4712 25.7696 25.1598 28.1666 25.1598ZM28.1772 23.6151C26.8509 23.6151 26.201 22.4325 26.201 20.9357C26.201 19.4389 26.8509 18.2404 28.1772 18.2404C29.4823 18.2404 30.1321 19.4389 30.1321 20.9357C30.1321 22.4325 29.4823 23.6151 28.1772 23.6151ZM35.6519 20.206C35.6519 19.0234 36.3657 18.3416 37.3831 18.3416C38.3792 18.3416 38.9758 18.9968 38.9758 20.0888V25H40.9041V19.7905C40.9094 17.8303 39.7908 16.7116 38.1022 16.7116C36.8771 16.7116 36.0355 17.2976 35.6626 18.2085H35.5667V16.8182H33.7237V25H35.6519V20.206ZM46.9499 16.8182H45.3359V14.858H43.4076V16.8182H42.2464V18.3097H43.4076V22.8587C43.397 24.3981 44.5156 25.1545 45.9644 25.1119C46.5131 25.0959 46.8913 24.9893 47.099 24.9201L46.7741 23.4126C46.6676 23.4393 46.4492 23.4872 46.2095 23.4872C45.7247 23.4872 45.3359 23.3168 45.3359 22.5391V18.3097H46.9499V16.8182ZM50.9169 25.1651C52.2007 25.1651 52.9677 24.5632 53.3193 23.8761H53.3832V25H55.2369V19.5241C55.2369 17.3615 53.4738 16.7116 51.913 16.7116C50.1925 16.7116 48.8715 17.4787 48.4454 18.9702L50.2458 19.2259C50.4375 18.6665 50.9809 18.1871 51.9237 18.1871C52.8186 18.1871 53.3086 18.6452 53.3086 19.4496V19.4815C53.3086 20.0355 52.728 20.0621 51.2845 20.2166C49.6971 20.3871 48.179 20.8612 48.179 22.7042C48.179 24.3129 49.3562 25.1651 50.9169 25.1651ZM51.4177 23.7482C50.6133 23.7482 50.038 23.3807 50.038 22.6722C50.038 21.9318 50.6826 21.6229 51.5455 21.5004C52.0515 21.4311 53.0636 21.3033 53.314 21.1009V22.065C53.314 22.9759 52.5789 23.7482 51.4177 23.7482ZM60.7447 25.1598C62.8008 25.1598 64.1112 23.94 64.2497 22.2035H62.4066C62.2415 23.0824 61.6076 23.5884 60.7607 23.5884C59.5569 23.5884 58.7792 22.5817 58.7792 20.9091C58.7792 19.2578 59.5728 18.267 60.7607 18.267C61.6875 18.267 62.2575 18.8636 62.4066 19.652H64.2497C64.1165 17.8782 62.7316 16.7116 60.7341 16.7116C58.337 16.7116 56.8243 18.4428 56.8243 20.9411C56.8243 23.418 58.2998 25.1598 60.7447 25.1598ZM69.9186 16.8182H68.3046V14.858H66.3764V16.8182H65.2152V18.3097H66.3764V22.8587C66.3657 24.3981 67.4843 25.1545 68.9332 25.1119C69.4818 25.0959 69.86 24.9893 70.0678 24.9201L69.7429 23.4126C69.6363 23.4393 69.4179 23.4872 69.1782 23.4872C68.6935 23.4872 68.3046 23.3168 68.3046 22.5391V18.3097H69.9186V16.8182Z" fill="#344563"/>
</svg>
