<svg width="87" height="40" viewBox="0 0 87 40" fill="none" xmlns="http://www.w3.org/2000/svg">
<path d="M13.3821 25H15.3584V21.3139H17.4464C19.966 21.3139 21.3189 19.8011 21.3189 17.7024C21.3189 15.6197 19.9819 14.0909 17.4731 14.0909H13.3821V25ZM15.3584 19.6893V15.7422H17.1694C18.6503 15.7422 19.3054 16.5412 19.3054 17.7024C19.3054 18.8636 18.6503 19.6893 17.1801 19.6893H15.3584ZM26.4019 25.1598C28.799 25.1598 30.3224 23.4712 30.3224 20.9411C30.3224 18.4055 28.799 16.7116 26.4019 16.7116C24.0049 16.7116 22.4815 18.4055 22.4815 20.9411C22.4815 23.4712 24.0049 25.1598 26.4019 25.1598ZM26.4126 23.6151C25.0862 23.6151 24.4364 22.4325 24.4364 20.9357C24.4364 19.4389 25.0862 18.2404 26.4126 18.2404C27.7176 18.2404 28.3675 19.4389 28.3675 20.9357C28.3675 22.4325 27.7176 23.6151 26.4126 23.6151ZM31.959 25H33.8873V20.19C33.8873 19.1513 34.6703 18.4162 35.7303 18.4162C36.0553 18.4162 36.4601 18.4748 36.6252 18.5281V16.7543C36.4494 16.7223 36.1458 16.701 35.9328 16.701C34.9953 16.701 34.2122 17.2337 33.9139 18.1818H33.8287V16.8182H31.959V25ZM42.4313 16.8182H40.8173V14.858H38.8891V16.8182H37.7278V18.3097H38.8891V22.8587C38.8784 24.3981 39.997 25.1545 41.4459 25.1119C41.9945 25.0959 42.3727 24.9893 42.5805 24.9201L42.2555 23.4126C42.149 23.4393 41.9306 23.4872 41.6909 23.4872C41.2062 23.4872 40.8173 23.3168 40.8173 22.5391V18.3097H42.4313V16.8182ZM47.525 25.1598C49.922 25.1598 51.4454 23.4712 51.4454 20.9411C51.4454 18.4055 49.922 16.7116 47.525 16.7116C45.128 16.7116 43.6045 18.4055 43.6045 20.9411C43.6045 23.4712 45.128 25.1598 47.525 25.1598ZM47.5356 23.6151C46.2093 23.6151 45.5594 22.4325 45.5594 20.9357C45.5594 19.4389 46.2093 18.2404 47.5356 18.2404C48.8407 18.2404 49.4905 19.4389 49.4905 20.9357C49.4905 22.4325 48.8407 23.6151 47.5356 23.6151ZM57.2263 16.8182H55.527V16.1737C55.527 15.5344 55.7934 15.1776 56.5125 15.1776C56.8161 15.1776 57.0718 15.2468 57.2316 15.2947L57.6204 13.8033C57.3701 13.718 56.8214 13.5795 56.1556 13.5795C54.7334 13.5795 53.5988 14.3945 53.5988 16.0458V16.8182H52.3896V18.3097H53.5988V25H55.527V18.3097H57.2263V16.8182ZM60.6646 14.0909H58.7364V25H60.6646V14.0909ZM62.6475 25H64.5758V16.8182H62.6475V25ZM63.617 15.657C64.2295 15.657 64.7302 15.1882 64.7302 14.6129C64.7302 14.0323 64.2295 13.5636 63.617 13.5636C62.9991 13.5636 62.4984 14.0323 62.4984 14.6129C62.4984 15.1882 62.9991 15.657 63.617 15.657ZM70.1275 25.1598C72.5245 25.1598 74.048 23.4712 74.048 20.9411C74.048 18.4055 72.5245 16.7116 70.1275 16.7116C67.7305 16.7116 66.2071 18.4055 66.2071 20.9411C66.2071 23.4712 67.7305 25.1598 70.1275 25.1598ZM70.1382 23.6151C68.8118 23.6151 68.162 22.4325 68.162 20.9357C68.162 19.4389 68.8118 18.2404 70.1382 18.2404C71.4432 18.2404 72.0931 19.4389 72.0931 20.9357C72.0931 22.4325 71.4432 23.6151 70.1382 23.6151Z" fill="#344563"/>
</svg>
